<?xml version="1.0" encoding="UTF-8" standalone="no"?>
<!-- Created with Inkscape (http://www.inkscape.org/) -->

<svg
   width="512"
   height="512"
   viewBox="0 0 512 512"
   version="1.1"
   id="svg5"
   xml:space="preserve"
   inkscape:export-filename="pwa-192x192.png"
   inkscape:export-xdpi="36"
   inkscape:export-ydpi="36"
   inkscape:version="1.2.1 (9c6d41e410, 2022-07-14, custom)"
   sodipodi:docname="comvite.svg"
   xmlns:inkscape="http://www.inkscape.org/namespaces/inkscape"
   xmlns:sodipodi="http://sodipodi.sourceforge.net/DTD/sodipodi-0.dtd"
   xmlns:xlink="http://www.w3.org/1999/xlink"
   xmlns="http://www.w3.org/2000/svg"
   xmlns:svg="http://www.w3.org/2000/svg"><sodipodi:namedview
     id="namedview7"
     pagecolor="#ffffff"
     bordercolor="#000000"
     borderopacity="0.25"
     inkscape:showpageshadow="2"
     inkscape:pageopacity="0.0"
     inkscape:pagecheckerboard="0"
     inkscape:deskcolor="#d1d1d1"
     inkscape:document-units="px"
     showgrid="false"
     inkscape:zoom="0.75575672"
     inkscape:cx="211.04675"
     inkscape:cy="236.18711"
     inkscape:window-width="1366"
     inkscape:window-height="731"
     inkscape:window-x="0"
     inkscape:window-y="0"
     inkscape:window-maximized="1"
     inkscape:current-layer="g292" /><defs
     id="defs2"><linearGradient
       inkscape:collect="always"
       id="linearGradient1478"><stop
         style="stop-color:#5500c7;stop-opacity:1;"
         offset="0"
         id="stop1474" /><stop
         style="stop-color:#5500c7;stop-opacity:0;"
         offset="1"
         id="stop1476" /></linearGradient><linearGradient
       inkscape:collect="always"
       id="linearGradient1448"><stop
         style="stop-color:#ffffff;stop-opacity:1;"
         offset="0"
         id="stop1444" /><stop
         style="stop-color:#ffffff;stop-opacity:0;"
         offset="1"
         id="stop1446" /></linearGradient><linearGradient
       id="IconifyId1813088fe1fbc01fb466"
       x1="-2.0007202"
       x2="139.28904"
       y1="48.343501"
       y2="219.34655"
       gradientTransform="matrix(12.294378,0,0,10.956505,-1083.1621,-777.42525)"
       gradientUnits="userSpaceOnUse"><stop
         offset="0%"
         stop-color="#41D1FF"
         id="stop261" /><stop
         offset="100%"
         stop-color="#BD34FE"
         id="stop263" /></linearGradient><linearGradient
       id="IconifyId1813088fe1fbc01fb467"
       x1="188.00649"
       x2="199.00609"
       y1="3.5533929"
       y2="141.10861"
       gradientTransform="matrix(6.9012946,0.278421,-0.50756662,12.581189,-364.18647,-406.8257)"
       gradientUnits="userSpaceOnUse"><stop
         offset="0%"
         stop-color="#FFEA83"
         id="stop266" /><stop
         offset="8.333%"
         stop-color="#FFDD35"
         id="stop268" /><stop
         offset="100%"
         stop-color="#FFA800"
         id="stop270" /></linearGradient><linearGradient
       inkscape:collect="always"
       xlink:href="#linearGradient1448"
       id="linearGradient1450"
       x1="-1578.0513"
       y1="709.39337"
       x2="211.70221"
       y2="709.39337"
       gradientUnits="userSpaceOnUse"
       gradientTransform="matrix(1.1344245,0,0,1.1344245,222.32272,-366.19076)" /><linearGradient
       inkscape:collect="always"
       xlink:href="#linearGradient1448"
       id="linearGradient1452"
       x1="175.9066"
       y1="705.57006"
       x2="1965.6599"
       y2="705.57006"
       gradientUnits="userSpaceOnUse"
       gradientTransform="matrix(1.1344245,0,0,1.1344245,222.32272,-366.19076)" /><linearGradient
       inkscape:collect="always"
       xlink:href="#linearGradient1478"
       id="linearGradient1480"
       x1="-1599.2287"
       y1="694.59948"
       x2="250.96896"
       y2="694.59948"
       gradientUnits="userSpaceOnUse"
       gradientTransform="matrix(1.1344245,0,0,1.1344245,222.32272,-366.19076)" /><linearGradient
       inkscape:collect="always"
       xlink:href="#linearGradient1478"
       id="linearGradient1482"
       x1="136.63984"
       y1="690.77617"
       x2="1986.8373"
       y2="690.77617"
       gradientUnits="userSpaceOnUse"
       gradientTransform="matrix(1.1344245,0,0,1.1344245,222.32272,-366.19076)" /></defs><g
     inkscape:label="Layer 1"
     inkscape:groupmode="layer"
     id="layer1"><g
       id="g292"
       transform="matrix(0.12451362,0,0,0.12451362,197.54273,176.88156)"><path
         id="Logo_00000038394049246713568260000012923108920998390947_"
         d="m 348.93102,-37.004671 c 1.24635,18.77297 -39.88673,246.942731 -39.88673,265.892321 0,578.96135 -399.650764,1037.22915 -1205.40448,1037.22915 v -0.3533 c -238.00951,0.3533 -471.12201,-67.8009 -671.49721,-196.3659 34.612,4.1804 69.4005,6.2265 104.2824,6.3146 197.3426,0.1767 388.9936,-66.0196 544.07965,-187.917 -187.47025,-3.5572 -351.89375,-125.8075 -409.28275,-304.29385 65.6616,12.63476 133.2807,10.05372 197.7892,-7.47292 -204.4621,-41.28499 -351.4527,-220.92418 -351.4527,-429.47834 v -5.52022 c 60.9514,33.98871 129.1056,52.76173 198.859,54.80767 -192.5388,-128.565081 -251.9738,-384.63601 -135.685,-584.82939 222.4355,273.68588 550.66447,440.072229 902.91657,457.775479 -35.32332,-152.14693 247.64218,196.493471 361.3552,89.458821 284.01927,-246.685891 862.01019,-480.05817 503.92685,-195.247121 z"
         style="fill:url(#linearGradient1480);fill-opacity:1;stroke:url(#linearGradient1450);stroke-width:88.9746"
         sodipodi:nodetypes="cscccccccscccccc" /><path
         id="path732"
         d="m 535.42731,-41.341931 c -1.24639,18.77294 39.88671,246.942721 39.88671,265.892321 0,578.96131 399.65083,1037.22901 1205.40438,1037.22901 v -0.353 c 238.0094,0.353 471.1218,-67.801 671.4968,-196.3663 -34.6118,4.1805 -69.4003,6.2266 -104.2823,6.3148 -197.3423,0.1764 -388.9934,-66.0196 -544.0795,-187.9169 187.4703,-3.5572 351.8937,-125.8076 409.2828,-304.29393 -65.6616,12.63477 -133.2808,10.05373 -197.7893,-7.47291 204.4622,-41.28499 351.4525,-220.92417 351.4525,-429.47834 v -5.52023 c -60.9511,33.98873 -129.1052,52.76175 -198.8587,54.80768 192.5388,-128.565111 251.9737,-384.63601 135.685,-584.82938 C 2081.1901,-119.64325 1752.9612,46.743099 1400.7093,64.446359 1436.0326,-87.700561 1153.0671,260.93983 1039.3542,153.90519 755.33475,-92.780711 177.34397,-326.15299 535.42731,-41.341931 Z"
         style="fill:url(#linearGradient1482);fill-opacity:1;stroke:url(#linearGradient1452);stroke-width:88.9746"
         sodipodi:nodetypes="cscccccccscccccc" /><path
         fill="url(#IconifyId1813088fe1fbc01fb466)"
         d="M 1878.1892,-337.10998 482.47659,2158.6596 c -28.81812,51.5316 -102.85396,51.8333 -132.10157,0.5571 L -1073.0067,-336.87787 c -31.8705,-55.87215 15.9121,-123.55939 79.23526,-112.23175 l 1397.20997,249.73017 a 75.869594,75.869594 0 0 0 26.94949,-0.0464 l 1367.98548,-249.3356 c 63.1146,-11.50171 111.1177,55.66324 79.8157,111.65147 z"
         id="path275"
         style="fill:url(#IconifyId1813088fe1fbc01fb466);stroke-width:11.6062" /><path
         fill="url(#IconifyId1813088fe1fbc01fb467)"
         d="m 1353.6549,-366.63584 -825.78542,148.09213 c -13.73577,2.12009 -45.85153,33.841 -47.23109,47.67081 l -64.2091,849.92513 c -2.02351,20.24547 15.98075,36.75057 35.97447,32.97897 l 233.02341,-43.96649 c 21.80041,-4.11378 40.55415,15.70128 35.23315,37.24239 l -82.14117,333.1214 c -5.52443,22.4196 14.91313,42.6012 37.25832,36.7828 l 144.35146,-37.5667 c 22.37314,-5.8172 42.83647,14.4214 37.246,36.8569 l -130.2879,523.2012 c -8.15233,32.7295 35.01915,52.4936 54.46115,24.9422 l 12.99703,-18.4034 759.10239,-1322.80918 c 12.2322,-22.12094 -35.24,-47.09636 -60.2194,-43.30681 l -239.5077,36.27567 c -22.4998,3.40424 -40.6602,-18.16021 -33.4801,-39.74765 l 176.8013,-531.44181 c 7.1916,-21.64297 75.0252,-90.02886 52.4944,-86.55119 z"
         id="path277"
         style="fill:url(#IconifyId1813088fe1fbc01fb467);stroke-width:9.32564"
         sodipodi:nodetypes="ccccccccccccccccccccc" /></g></g></svg>
