<?xml version="1.0" encoding="UTF-8" standalone="no"?>
<!-- Created with Inkscape (http://www.inkscape.org/) -->

<svg
   width="1000.0px"
   height="1000.0px"
   viewBox="0 0 1000.0 1000.0"
   version="1.1"
   id="SVGRoot"
   sodipodi:docname="logo.svg"
   xml:space="preserve"
   inkscape:export-filename="comvite.png"
   inkscape:export-xdpi="96"
   inkscape:export-ydpi="96"
   inkscape:version="1.2.1 (9c6d41e410, 2022-07-14, custom)"
   xmlns:inkscape="http://www.inkscape.org/namespaces/inkscape"
   xmlns:sodipodi="http://sodipodi.sourceforge.net/DTD/sodipodi-0.dtd"
   xmlns:xlink="http://www.w3.org/1999/xlink"
   xmlns="http://www.w3.org/2000/svg"
   xmlns:svg="http://www.w3.org/2000/svg"><sodipodi:namedview
     id="namedview525"
     pagecolor="#ffffff"
     bordercolor="#000000"
     borderopacity="0.25"
     inkscape:showpageshadow="2"
     inkscape:pageopacity="0.0"
     inkscape:pagecheckerboard="0"
     inkscape:deskcolor="#d1d1d1"
     inkscape:document-units="px"
     showgrid="true"
     inkscape:zoom="0.33589188"
     inkscape:cx="510.58097"
     inkscape:cy="468.90089"
     inkscape:window-width="1366"
     inkscape:window-height="731"
     inkscape:window-x="0"
     inkscape:window-y="0"
     inkscape:window-maximized="1"
     inkscape:current-layer="g292"
     showguides="true"><inkscape:grid
       type="xygrid"
       id="grid648" /><sodipodi:guide
       position="345.70353,379.7672"
       orientation="0,-1"
       id="guide892"
       inkscape:locked="false" /><sodipodi:guide
       position="418.91133,749.87333"
       orientation="0,-1"
       id="guide901"
       inkscape:locked="false" /><sodipodi:guide
       position="77.405861,776.71386"
       orientation="1,0"
       id="guide13843"
       inkscape:locked="false" /><sodipodi:guide
       position="917.67877,871.489"
       orientation="1,0"
       id="guide13845"
       inkscape:locked="false" /><sodipodi:guide
       position="202.4461,607.0164"
       orientation="1,0"
       id="guide13853"
       inkscape:locked="false" /><sodipodi:guide
       position="797.8758,901.7541"
       orientation="1,0"
       id="guide13855"
       inkscape:locked="false" /><sodipodi:guide
       position="395.96075,815.41679"
       orientation="1,0"
       id="guide13857"
       inkscape:locked="false" /><sodipodi:guide
       position="601.384,696.33085"
       orientation="1,0"
       id="guide13859"
       inkscape:locked="false" /></sodipodi:namedview><defs
     id="defs520"><linearGradient
       inkscape:collect="always"
       id="linearGradient13739"><stop
         style="stop-color:#0c7bff;stop-opacity:1;"
         offset="0"
         id="stop13735" /><stop
         style="stop-color:#dd39ff;stop-opacity:1;"
         offset="1"
         id="stop13737" /></linearGradient><inkscape:path-effect
       effect="spiro"
       id="path-effect13733"
       is_visible="true"
       lpeversion="1" /><linearGradient
       inkscape:collect="always"
       id="linearGradient13368"><stop
         style="stop-color:#ba00ff;stop-opacity:1;"
         offset="0"
         id="stop13364" /><stop
         style="stop-color:#00beff;stop-opacity:1;"
         offset="1"
         id="stop13366" /></linearGradient><linearGradient
       inkscape:collect="always"
       id="linearGradient8476"><stop
         style="stop-color:#5500c7;stop-opacity:1;"
         offset="0"
         id="stop8472" /><stop
         style="stop-color:#ff00ff;stop-opacity:1;"
         offset="1"
         id="stop8474" /></linearGradient><linearGradient
       inkscape:collect="always"
       id="linearGradient1448"><stop
         style="stop-color:#ffffff;stop-opacity:1;"
         offset="0"
         id="stop1444" /><stop
         style="stop-color:#ffffff;stop-opacity:0;"
         offset="1"
         id="stop1446" /></linearGradient><linearGradient
       id="IconifyId1813088fe1fbc01fb466"
       x1="-2.0007202"
       x2="139.28904"
       y1="48.343501"
       y2="219.34655"
       gradientTransform="matrix(10.741311,0,0,9.572443,-816.85289,1062.3634)"
       gradientUnits="userSpaceOnUse"><stop
         offset="0%"
         stop-color="#41D1FF"
         id="stop261" /><stop
         offset="100%"
         stop-color="#BD34FE"
         id="stop263" /></linearGradient><linearGradient
       id="IconifyId1813088fe1fbc01fb467"
       x1="188.00649"
       x2="199.00609"
       y1="3.5533929"
       y2="141.10861"
       gradientTransform="matrix(6.0295002,0.24324994,-0.44344911,10.991891,-188.70061,1386.1476)"
       gradientUnits="userSpaceOnUse"><stop
         offset="0%"
         stop-color="#FFEA83"
         id="stop266" /><stop
         offset="8.333%"
         stop-color="#FFDD35"
         id="stop268" /><stop
         offset="100%"
         stop-color="#FFA800"
         id="stop270" /></linearGradient><linearGradient
       inkscape:collect="always"
       xlink:href="#linearGradient1448"
       id="linearGradient1452"
       x1="175.9066"
       y1="705.57006"
       x2="1112.3802"
       y2="-650.6167"
       gradientUnits="userSpaceOnUse"
       gradientTransform="matrix(1.118582,-0.24399601,0.24399601,1.118582,37.440156,158.91341)" /><linearGradient
       inkscape:collect="always"
       xlink:href="#linearGradient8476"
       id="linearGradient1482"
       x1="136.63984"
       y1="690.77617"
       x2="1112.3802"
       y2="-650.6167"
       gradientUnits="userSpaceOnUse"
       gradientTransform="matrix(1.118582,-0.24399601,0.24399601,1.118582,37.440156,158.91341)" /><linearGradient
       inkscape:collect="always"
       xlink:href="#linearGradient8476"
       id="linearGradient8480"
       gradientUnits="userSpaceOnUse"
       gradientTransform="matrix(-1.118582,-0.24399601,-0.24399601,1.118582,806.20341,166.42247)"
       x1="136.63984"
       y1="690.77617"
       x2="1112.3802"
       y2="-650.6167" /><linearGradient
       inkscape:collect="always"
       xlink:href="#linearGradient1448"
       id="linearGradient8482"
       gradientUnits="userSpaceOnUse"
       gradientTransform="matrix(-1.118582,-0.24399601,-0.24399601,1.118582,806.20341,166.42247)"
       x1="175.9066"
       y1="705.57006"
       x2="1112.3802"
       y2="-650.6167" /><linearGradient
       inkscape:collect="always"
       xlink:href="#linearGradient13368"
       id="linearGradient13370"
       x1="398.68945"
       y1="85.6621"
       x2="1004.9707"
       y2="85.6621"
       gradientUnits="userSpaceOnUse" /><linearGradient
       inkscape:collect="always"
       xlink:href="#linearGradient13739"
       id="linearGradient13753"
       gradientUnits="userSpaceOnUse"
       gradientTransform="matrix(-0.13204403,0.69352536,0.69352536,0.13204403,911.5985,-629.53563)"
       x1="-375.64152"
       y1="442.36495"
       x2="1305.5512"
       y2="442.36495" /></defs><g
     inkscape:label="Layer 1"
     inkscape:groupmode="layer"
     id="layer1"><g
       id="g292"
       transform="matrix(0.22734634,0,0,0.22734634,399.78478,333.63395)"><path
         id="path732"
         d="m 416.04179,411.88202 c 2.80877,18.77885 92.44299,234.91514 96.51874,253.60011 124.52502,570.87637 617.16037,936.78617 1411.66127,763.48187 l -0.076,-0.3481 c 234.7616,-50.8438 449.9597,-168.1848 619.8841,-338.0522 -33.2293,11.5664 -67.0918,21.0664 -101.4678,28.656 -194.5483,42.6189 -397.7606,18.5684 -576.8991,-68.2702 184.0871,-43.8294 319.9204,-199.7373 338.1185,-388.07448 -62.0272,26.58104 -129.2572,38.57981 -196.6344,35.17267 192.727,-84.68489 299.0271,-293.43054 254.1705,-499.0722 l -1.1871,-5.44314 c -52.7895,46.62363 -115.9542,79.79332 -184.2934,96.81349 162.1976,-168.18157 165.7259,-433.45987 8.003,-605.84572 C 1923.3762,2.2061482 1635.518,236.86549 1291.9931,330.08508 1294.0988,172.4655 1090.0718,577.09824 954.9254,496.01613 621.81455,313.86315 1.7009945,208.06623 416.04179,411.88202 Z"
         style="fill:url(#linearGradient1482);fill-opacity:1;stroke:url(#linearGradient1452);stroke-width:89.7947"
         sodipodi:nodetypes="cscccccccscccccc" /><path
         id="path8478"
         d="m 427.60182,419.3911 c -2.80877,18.77885 -92.44302,234.91513 -96.51873,253.6001 -124.52504,570.8765 -617.16047,936.786 -1411.66169,763.4818 l 0.076,-0.3482 c -234.7615,-50.8438 -449.9596,-168.1847 -619.884,-338.0521 33.2293,11.5664 67.092,21.0665 101.4678,28.656 194.5484,42.619 397.7608,18.5685 576.8993,-68.2702 -184.0874,-43.8292 -319.9204,-199.73723 -338.1187,-388.07441 62.0273,26.58105 129.2571,38.57981 196.6345,35.17267 -192.7272,-84.68489 -299.0273,-293.43055 -254.1706,-499.0722 l 1.1873,-5.44313 c 52.7894,46.62363 115.954,79.79332 184.2932,96.81349 -162.1976,-168.18158 -165.7259,-433.45988 -8.003,-605.84573 160.464,317.7060279 448.32242,552.36538 791.84738,645.58498 -2.10575,-157.6196 201.92126,247.01314 337.0675,165.93103 333.11056,-182.15298 953.22404,-287.9499 538.88334,-84.1341 z"
         style="fill:url(#linearGradient8480);fill-opacity:1;stroke:url(#linearGradient8482);stroke-width:89.7947"
         sodipodi:nodetypes="cscccccccscccccc" /><g
         id="g13851"
         transform="translate(-43.746316,-1569.2036)"><path
           fill="url(#IconifyId1813088fe1fbc01fb466)"
           d="M 1770.4105,1447.0566 551.00915,3627.5523 c -25.17772,45.022 -89.86111,45.2856 -115.41406,0.4867 L -807.98032,1447.2594 c -27.84452,-48.8142 13.90199,-107.951 69.22599,-98.0543 l 1220.70977,218.1835 a 66.285494,66.285494 0 0 0 23.54515,-0.041 L 1700.6774,1349.5093 c 55.1417,-10.0488 97.0809,48.6317 69.7331,97.5473 z"
           id="path275"
           style="fill:url(#IconifyId1813088fe1fbc01fb466);stroke-width:10.1401" /><path
           fill="url(#IconifyId1813088fe1fbc01fb467)"
           d="m 1312.1371,1421.2605 -721.46925,129.3847 c -12.00061,1.8523 -40.0594,29.5661 -41.26469,41.6489 l -56.09799,742.5597 c -1.76789,17.688 13.96201,32.1081 31.43006,28.8129 l 203.58711,-38.4124 c 19.0465,-3.5942 35.43122,13.7178 30.78238,32.5378 l -71.76482,291.0404 c -4.82657,19.5875 13.02924,37.2198 32.55172,32.1363 l 126.1165,-32.8211 c 19.54689,-5.0824 37.42522,12.5996 32.54097,32.201 l -113.82951,457.1086 c -7.12249,28.5951 30.59542,45.8625 47.58144,21.7915 l 11.3552,-16.0786 663.20998,-1155.7076 c 10.6869,-19.3266 -30.7884,-41.147 -52.6123,-37.8362 l -209.2524,31.6932 c -19.6575,2.9742 -35.5238,-15.8661 -29.2508,-34.7266 l 154.4672,-464.3083 c 6.2831,-18.9089 65.5478,-78.6561 45.8632,-75.6177 z"
           id="path277"
           style="fill:url(#IconifyId1813088fe1fbc01fb467);stroke-width:8.14759"
           sodipodi:nodetypes="ccccccccccccccccccccc" /><g
           id="path13356"
           transform="matrix(0.78677166,0.65110742,-0.65110742,0.78677166,6.3806605,1640.1516)"
           style="fill:none;fill-opacity:1;stroke:url(#linearGradient13370)"><path
             style="color:#000000;fill:url(#linearGradient13753);fill-rule:evenodd;stroke:none;stroke-width:0.705984;-inkscape-stroke:none;paint-order:markers fill stroke"
             d="M -130.77658,-29.957109 C 105.26456,-186.09174 364.17029,-357.48434 615.55077,-487.4896 c 169.4928,-87.6558 344.37502,-170.29343 530.75253,-222.44789 186.5036,-52.18982 385.7581,-72.96643 578.3145,-34.73225 192.935,38.30938 377.6293,139.0664 496.8415,298.68481 59.6014,79.80298 101.8474,173.06505 119.3712,271.78759 17.5353,98.787677 9.9004,202.334187 -25.3199,296.981 -57.7903,155.29982 -189.8095,279.95104 -348.8488,326.47205 -156.7845,45.86127 -301.974,2.58164 -457.6036,-55.14256 l -9.9373,-86.4424 c 117.0262,86.14497 310.5352,123.62431 449.7813,82.07194 139.2462,-41.55261 257.723,-152.42912 308.4023,-288.61909 31.0632,-83.475991 38.0569,-176.123178 22.3756,-264.46607 -15.6929,-88.40819 -53.8546,-173.00786 -107.98,-245.47891 -108.242,-144.92987 -279.281,-239.21064 -459.1789,-274.93138 -180.2767,-35.79596 -369.9344,-16.61787 -549.4806,33.62496 -179.67223,50.27817 -350.81967,130.84831 -518.95927,217.8042 -249.40887,128.98566 -543.47993,257.87445 -777.66984,412.784581 z"
             id="path13751"
             sodipodi:nodetypes="csssssssccssssssscc" /></g></g></g></g></svg>
